<svg width="13" height="15" viewBox="0 0 13 15" fill="none" xmlns="http://www.w3.org/2000/svg">
<path id="Vector" d="M6.5 14.1779C10.0899 14.1779 13 11.0042 13 7.08897C13 3.17373 10.0899 0 6.5 0C2.91005 0 0 3.17373 0 7.08897C0 11.0042 2.91005 14.1779 6.5 14.1779ZM7.475 4.25338C7.6882 4.56246 7.84095 4.924 7.91375 5.31673H9.1V6.38008H7.91375C7.80125 6.98047 7.50207 7.52006 7.0668 7.90758C6.63152 8.2951 6.08689 8.50676 5.525 8.50677H5.4015L7.8195 11.1439L7.1305 11.8953L3.9 8.37208V7.44342H5.525C5.82751 7.44352 6.12261 7.34131 6.36964 7.15087C6.61666 6.96043 6.80346 6.69113 6.9043 6.38008H3.9V5.31673H6.9043C6.80338 5.00573 6.61656 4.73649 6.36955 4.54607C6.12254 4.35564 5.82749 4.25339 5.525 4.25338H3.9V3.19004H9.1V4.25338H7.475Z" fill="#F2F2F2"/>
</svg>
