<?xml version="1.0" encoding="utf-8"?>
<!-- Generator: Adobe Illustrator 24.0.0, SVG Export Plug-In . SVG Version: 6.00 Build 0)  -->
<svg version="1.1" id="Layer_1" xmlns="http://www.w3.org/2000/svg" xmlns:xlink="http://www.w3.org/1999/xlink" x="0px" y="0px"
	 viewBox="0 0 257.62 272.39" style="enable-background:new 0 0 257.62 272.39;" xml:space="preserve">
<path d="M125.24,80.18c40.71,0,44.2,2.81,53.5,39.78c4.38,17.39,8.71,34.8,13.33,52.13c4.18,15.66-1.22,25.13-17.64,25.88
	c-9.58,0.44-13.29,4.02-12.19,13.26c0.24,1.97-0.02,3.99,0.03,5.98c1.3,48.61-0.72,43.47-47.31,43.73
	c-13.35,0.07-19.52-6.62-19.74-19.51c-0.11-6.65-0.37-13.33,0.01-19.96c0.74-13.26,1.45-24.68-18.07-24.72
	c-10.92-0.02-14.77-10.44-12.24-20.92c6.06-25.19,11.66-50.55,19.33-75.26C91.12,78.51,110.49,79.31,125.24,80.18z"/>
<circle cx="128.81" cy="38.42" r="33.26"/>
</svg>
