<?xml version="1.0" encoding="utf-8"?>
<!-- Generator: Adobe Illustrator 24.0.0, SVG Export Plug-In . SVG Version: 6.00 Build 0)  -->
<svg version="1.1" id="Layer_1" xmlns="http://www.w3.org/2000/svg" xmlns:xlink="http://www.w3.org/1999/xlink" x="0px" y="0px"
	 viewBox="0 0 16 16" style="enable-background:new 0 0 16 16;" xml:space="preserve">
<g>
	<path d="M10.01,2.06c0.41,0.57,0.71,1.17,0.84,1.84c0.02,0.11,0.09,0.13,0.19,0.13c0.3,0,0.61-0.01,0.91,0
		c0.59,0.01,1.02,0.43,1.02,0.98c0,0.55-0.43,0.98-1.01,0.99c-0.29,0.01-0.58,0.02-0.86,0c-0.19-0.01-0.24,0.07-0.29,0.23
		c-0.54,1.94-1.8,3.16-3.75,3.65C6.86,9.94,6.66,9.96,6.45,10c0.03,0.1,0.1,0.14,0.16,0.2c1.34,1.33,2.67,2.66,4.02,3.99
		c0.3,0.3,0.44,0.64,0.32,1.05c-0.2,0.69-1.02,0.94-1.58,0.49c-0.06-0.05-0.11-0.1-0.17-0.16c-1.93-1.93-3.85-3.86-5.78-5.78
		c-0.24-0.24-0.39-0.5-0.37-0.84C3.07,8.41,3.49,8.01,4.03,8C4.72,8,5.4,8.03,6.08,7.99C7.3,7.93,8.17,7.33,8.71,6.24
		c0.08-0.17,0.08-0.23-0.14-0.23c-1.5,0.01-3,0.01-4.5,0c-0.7,0-1.16-0.57-1.01-1.22c0.1-0.45,0.49-0.75,0.99-0.75
		c0.95-0.01,1.89,0,2.84,0c0.58,0,1.16-0.01,1.75,0c0.19,0,0.24-0.04,0.15-0.22C8.25,2.71,7.38,2.1,6.15,2.05
		C5.47,2.01,4.79,2.04,4.1,2.04c-0.62,0-1.07-0.41-1.07-0.98c-0.01-0.56,0.44-1,1.06-1.01c2.61,0,5.22,0,7.83,0
		c0.61,0,1.06,0.44,1.06,1c-0.01,0.57-0.45,0.99-1.07,0.99c-0.61,0-1.21,0-1.82,0C10.07,2.04,10.05,2.05,10.01,2.06z"/>
</g>
</svg>
