<svg width="12" height="12" viewBox="0 0 12 12" fill="none" xmlns="http://www.w3.org/2000/svg">
<g id="dashicons:email">
<path id="Vector" d="M2.32185 2.40002H10.2718C11.0218 2.40002 11.3998 2.75402 11.3998 3.47402V8.52602C11.3998 9.24002 11.0218 9.60002 10.2718 9.60002H2.32185C1.57185 9.60002 1.19385 9.24002 1.19385 8.52602V3.47402C1.19385 2.75402 1.57185 2.40002 2.32185 2.40002ZM6.29385 7.56002L10.3378 4.24202C10.4818 4.12202 10.5958 3.84602 10.4158 3.60002C10.2418 3.35402 9.92385 3.34802 9.71385 3.49802L6.29385 5.81402L2.87985 3.49802C2.66985 3.34802 2.35185 3.35402 2.17785 3.60002C1.99785 3.84602 2.11185 4.12202 2.25585 4.24202L6.29385 7.56002Z" fill="#F2F2F2"/>
</g>
</svg>
