<?xml version="1.0" encoding="UTF-8"?><svg id="Layer_1" xmlns="http://www.w3.org/2000/svg" viewBox="0 0 395.13 55.29"><defs><style>.cls-1{fill:#fff;}.cls-2{fill:#176fa4;}.cls-3{fill:#bbb;}.cls-4{fill:#6d6d6d;}</style></defs><path class="cls-4" d="m52.46,49.69c.17.22.48.27.7.11h0l1.21-.94c.39-.33.36-.5,0-.7-2.38-1.35-.79-4.79,1.81-4.67s2.4,3.52.25,5c-2.37,1.81-3.77,2-5,1.78-.24.65-.47,1.3-.7,2h12c-.85-2-1.41-4.11-1.66-6.27l-1.78,2.75.55,1.86-4.22.06c3.08-1.26,4.88-2.91,4.79-5.22s-1.94-3.61-4.86-3.45c-4,.09-6.32,4.74-3.09,7.74v-.05Zm12.04-3.49l-2-1c-.57-.34-.57-.82,0-1.45,2.93-3.31,7.32-1,7.23,3.62,0,5.16-5.82,6.51-7.45,2.7l1.65-1c.54,1.33,1,1.62,1.53,1.65,1.38.08,2-1.39,2-3.29,0-2.23-.33-3.65-1.61-3.87-1-.17-1.88.78-1.4,2.62l.05.02Zm38.21,3.49c.16.22.46.27.68.12l.06-.05,1.21-.94c.39-.33.36-.5,0-.7-2.39-1.35-.8-4.79,1.81-4.67s2.4,3.52.25,5c-2.37,1.81-3.78,2-5,1.78l-.7,2h12c-.84-1.98-1.4-4.07-1.65-6.2l-1.78,2.75c.19.61.37,1.25.56,1.86l-4.23.06c3.08-1.26,4.88-2.91,4.79-5.22s-1.93-3.62-4.85-3.51c-4,.09-6.33,4.74-3.09,7.74l-.06-.02Zm6.21-7.59l-2.59-.67c.53-2.27,4.17-3.52,6.91-1.52,1.52.97,2.46,2.63,2.52,4.43l.08,7.89h-2.46l-.17-7.23c0-2.76-.49-3.87-1.64-4.35-1.04-.38-2.19.15-2.57,1.19,0,0,0,0,0,0,0,.1-.06.2-.08.3v-.04Zm-31.29.47c-2.48-1.14-6.75.76-7.12,4.64-.19,2.28.64,3.65,2.25,5.14l1.15-1.43c-1.61-.73-2.48-2.5-2.06-4.22.24-1.71,1.7-2.99,3.43-3-1.42,1.56-2,2.82-1.86,4.48s.82,3.77,3.33,3.9c2.1.13,3.67-1.78,3.92-3.69.13-1.79-.47-3.55-1.67-4.88,2.31.33,3.22,2,3.33,4.64.03,2.31-1.15,4.47-3.11,5.69-1.33.56-2.82.58-4.17.06-.24-.18-.16-.33.18-.43,1.15-.22,2.33-.09,3.4.39l.74-.67c-1.56-.94-3.45-1.19-5.2-.67-.4.1-.73.39-.89.77.05.4.27.77.6,1,3.5,2.51,10.37,0,10.81-5.35.31-4.8-3.11-7.26-7.06-6.37Zm-1,7.28c-1.56.07-2.47-2.75-.79-5,.55-.76.94-.71,1.47.07,1.32,1.8,1.12,4.79-.71,4.93h.03Zm12.21,4.59c3.56,1.32,7.54.89,10.73-1.17.55-.41.65-.7.47-1-.42-.55-.98-.99-1.61-1.27.78-.59,1.39-1.37,1.79-2.26.15-.35.15-.55-.14-.58-1.81.22-3.64.07-5.39-.45-.56-.21-.3-.68.26-.74,3.09-.35,4-1.18,4-2.26-.17-1.49-3-3.07-5.44-2.82-4.79.36-6.64,5.51-5.43,10.22l2.88.06c.76,0,.57-.18.06-.85-.9-1.39-1.15-3.11-.68-4.7.59-1.92,1.78-3.39,4.12-3.16.78.12,1.74,1,1,1.6s-1.89.82-2.76,1.51c-.7.49-.74.79-.22,1.48,1.11,1.12,2.53,1.87,4.08,2.15.28.07.45.08.15.26-.7.19-1.45.15-2.13-.11-.39-.11-.7-.06-.82.34l-.67,1.69c-.12.33.38.25.56.18,1.86-.81,3.77-.75,3.48.08-.7,2.1-8.57,1.51-9.57-.8-1-2.53-.83-7.29,1.31-9.73l-3.44.1v6.25c-.06,3.11.82,4.74,3.45,6l-.04-.02Z"/><path class="cls-2" d="m44.37,31.73h-6.13V10.56l.53-.09c.21,0,.42-.02.63-.06h.85c.86-.02,1.7.16,2.48.52.71.35,1.2,1.03,1.32,1.81.64-.79,1.43-1.43,2.33-1.9,1.32-.63,2.79-.92,4.25-.84,1.31-.1,2.62.21,3.74.89.77.54,1.4,1.26,1.81,2.11.73-.85,1.61-1.56,2.6-2.09,1.3-.68,2.75-1.01,4.22-.97,1.67-.14,3.33.34,4.67,1.34.96.82,1.59,1.97,1.77,3.22.12.74.21,1.49.25,2.24,0,.81.07,1.6.07,2.37v12.62h-6.1v-14.14c-.02-.48-.13-.95-.33-1.39-.2-.39-.51-.7-.9-.89-.54-.24-1.14-.35-1.73-.31-.77,0-1.53.18-2.21.54-.59.25-1.1.65-1.49,1.15.09.88.14,1.76.14,2.65v12.39h-6.06v-14.18c-.01-.51-.14-1-.36-1.46-.21-.4-.54-.73-.94-.94-.56-.25-1.17-.37-1.78-.34-.91-.03-1.81.21-2.58.7-.62.36-1,1.01-1,1.72l-.05,14.5Zm48.51-5.19c-.13,1.77.22,3.55,1,5.15-.93.39-1.94.59-2.95.58-.86.06-1.72-.16-2.44-.63-.55-.45-.91-1.09-1-1.79-.74.75-1.63,1.34-2.6,1.75-1.25.51-2.59.76-3.94.72-.82,0-1.64-.1-2.43-.32-.8-.22-1.55-.59-2.2-1.1-.68-.54-1.23-1.22-1.61-2-.44-.98-.65-2.04-.62-3.11-.07-1.35.31-2.69,1.09-3.79.73-.96,1.68-1.73,2.76-2.26,1.13-.56,2.34-.94,3.58-1.14,1.17-.2,2.35-.33,3.53-.4h2v-.8c.09-.9-.24-1.78-.9-2.4-.9-.56-1.95-.81-3-.72-1.17-.02-2.33.19-3.42.63-1,.42-1.98.9-2.93,1.43-.42-.5-.76-1.07-1-1.68-.2-.43-.33-.89-.38-1.36.05-.48.3-.91.69-1.19.56-.48,1.2-.85,1.89-1.11.89-.35,1.82-.6,2.77-.76,1.09-.18,2.2-.27,3.31-.24,1.38-.03,2.76.13,4.1.49,1.03.27,1.98.78,2.76,1.51.71.71,1.23,1.6,1.5,2.57.32,1.18.46,2.39.44,3.61v8.36Zm-5.72-5.19h-1.26c-.74.06-1.48.16-2.21.3-.69.11-1.37.32-2,.62-.54.27-1.02.66-1.39,1.14-.37.54-.56,1.19-.53,1.84-.03.77.23,1.52.71,2.12.63.64,1.52.97,2.42.88.55,0,1.09-.09,1.61-.25.47-.13.92-.33,1.34-.58.35-.2.66-.47.92-.78.19-.22.31-.49.34-.78l.05-4.51Zm11.77,7.16c-.22-.61-.35-1.24-.4-1.88-.07-.66-.1-1.33-.09-2V3.89l.67-.09c.22,0,.45-.01.67-.06.24-.03.47-.03.71,0,.48,0,.97.05,1.44.14.46.09.9.27,1.29.54.4.27.73.65.94,1.09.26.57.38,1.19.36,1.82v3.13h6.27v4.54h-6.27v9.58c0,2.09.85,3.14,2.55,3.14.41,0,.81-.07,1.19-.21.34-.12.68-.27,1-.44.28-.15.54-.32.78-.52.21-.18.36-.31.45-.4.37.54.7,1.11,1,1.7.22.41.35.87.36,1.34-.01.42-.18.83-.47,1.14-.38.41-.82.75-1.32,1-.65.35-1.34.6-2.06.76-.86.21-1.75.31-2.64.3-1.53.1-3.05-.28-4.36-1.08-.96-.7-1.69-1.67-2.07-2.8Zm29.81-9.13c.01-.61,0-1.22-.07-1.83-.03-.5-.15-1-.36-1.46-.2-.41-.53-.74-.94-.94-.57-.25-1.19-.37-1.81-.34-.99-.03-1.97.22-2.84.7-.69.3-1.15.97-1.19,1.72v14.5h-6.09V.18c.24-.06.48-.1.72-.11.44-.05.89-.07,1.34-.07.48,0,.96.04,1.43.13.46.09.9.26,1.3.52.4.27.73.64.94,1.07.26.57.38,1.19.36,1.82v8.9c.28-.3.57-.59.89-.85.4-.32.84-.6,1.3-.83.56-.27,1.16-.47,1.77-.6.76-.16,1.53-.23,2.31-.22,1.66-.13,3.32.31,4.7,1.25,1.03.84,1.74,2.01,2,3.31.16.74.26,1.49.3,2.24.04.81.06,1.6.06,2.37v12.62h-6.08l-.04-12.35Zm17.63-6.71c.22-.32.47-.62.74-.9.33-.34.7-.64,1.1-.89.44-.28.91-.51,1.4-.67.54-.18,1.11-.27,1.68-.27.39,0,.77.03,1.15.09.38.06.76.17,1.11.33.33.15.61.38.83.67.22.31.33.67.32,1.05-.03.77-.2,1.53-.5,2.24-.28.76-.62,1.49-1,2.2-.46-.4-.97-.73-1.52-1-.57-.23-1.18-.34-1.79-.33-.85-.03-1.68.26-2.33.8-.59.47-.94,1.18-.94,1.93v13.81h-6.09V10.56l.54-.09.63-.06h.85c.85,0,1.69.2,2.45.59.68.32,1.19.94,1.37,1.67Zm30.57,19.06h-4.07c-.75,0-1.22-.2-1.41-.6-.23-.56-.32-1.17-.29-1.77-.63.79-1.43,1.44-2.33,1.9-1.32.65-2.78.95-4.25.88-1.66.13-3.32-.31-4.7-1.26-1.03-.84-1.74-2.01-2-3.31-.16-.74-.26-1.49-.29-2.24,0-.8-.07-1.59-.07-2.37v-12.4c.24-.06.48-.09.72-.11.41,0,.86-.07,1.34-.07.48,0,.96.05,1.43.14.46.08.9.26,1.3.51.4.28.72.65.94,1.08.26.57.39,1.19.36,1.81v8.77c0,.67.02,1.29.06,1.86.02.5.13.99.32,1.45.2.41.53.74.94.94.57.26,1.19.37,1.81.34,1,.03,1.98-.21,2.85-.7.68-.31,1.14-.97,1.18-1.72v-14.3c.24-.06.48-.09.72-.11.42,0,.86-.07,1.34-.07.48,0,.96.06,1.43.16.47.1.91.3,1.3.58.41.31.73.71.94,1.17.26.58.38,1.21.36,1.85l.07,17.59Zm11.82-19.82c1.45-1.35,3.37-2.07,5.35-2,1.13,0,2.26.17,3.34.51,1.07.35,2.04.96,2.82,1.77.9.94,1.58,2.06,2,3.29.53,1.64.78,3.36.74,5.08.06,1.96-.22,3.91-.81,5.77-.44,1.36-1.17,2.62-2.14,3.67-.79.84-1.78,1.48-2.87,1.85-1.03.36-2.11.54-3.2.54-.84.02-1.68-.1-2.48-.34-.61-.18-1.19-.43-1.75-.73-.38-.22-.75-.48-1.09-.76-.16-.15-.31-.32-.45-.5,0,.42-.12.84-.36,1.19-.31.37-.77.56-1.25.51h-3.94V.18c.24-.06.48-.1.72-.11.44-.05.89-.07,1.34-.07.49,0,.97.04,1.45.13.47.08.91.26,1.3.54.39.29.7.67.92,1.1.26.57.38,1.19.36,1.81v8.33Zm7.83,8.77c0-.87-.07-1.73-.23-2.58-.12-.71-.37-1.38-.73-2-.34-.56-.82-1.02-1.39-1.34-.65-.35-1.39-.52-2.13-.5-.93-.1-1.87.16-2.62.72-.46.41-.72.99-.73,1.61v9.71c.38.35.81.64,1.27.88.71.36,1.51.54,2.31.51,1.35.1,2.63-.61,3.26-1.81.75-1.63,1.09-3.41.99-5.2Zm24.48-1.3c.01-.61,0-1.22-.07-1.83-.03-.5-.14-1-.35-1.46-.2-.41-.53-.74-.94-.94-.57-.25-1.2-.37-1.82-.34-.99-.02-1.97.22-2.84.7-.69.3-1.15.97-1.19,1.72v14.5h-6.08V.18c.23-.06.47-.1.71-.11.45-.05.9-.07,1.35-.07.48,0,.96.04,1.43.13.46.09.9.26,1.3.52.4.27.72.64.94,1.07.25.57.37,1.19.35,1.82v8.9c.28-.31.58-.59.9-.85.4-.32.84-.6,1.3-.83.56-.27,1.16-.47,1.77-.6.76-.16,1.53-.23,2.3-.22,1.66-.13,3.32.31,4.7,1.25,1.03.84,1.73,2.01,2,3.31.16.74.26,1.49.29,2.24,0,.81.07,1.6.07,2.37v12.62h-6.09l-.03-12.35Zm31.2,12.35h-4.08c-.74,0-1.21-.2-1.41-.6-.22-.56-.32-1.17-.29-1.77-.63.79-1.42,1.44-2.32,1.9-1.32.65-2.79.95-4.26.88-1.66.13-3.32-.31-4.7-1.26-1.03-.84-1.74-2.01-2-3.31-.15-.74-.25-1.49-.29-2.24-.04-.8-.06-1.59-.06-2.37v-12.4c.23-.06.47-.09.71-.11.42,0,.87-.07,1.35-.07.48,0,.96.05,1.43.14.46.08.9.26,1.3.51.4.28.72.65.94,1.08.26.57.38,1.19.35,1.81v8.77c-.01.62,0,1.24.07,1.86.04.5.17,1,.39,1.45.2.41.53.74.94.94.57.26,1.19.37,1.81.34.99.03,1.97-.21,2.84-.7.69-.3,1.15-.97,1.19-1.72v-14.3c.24-.06.48-.09.72-.11.41,0,.86-.07,1.34-.07.48,0,.96.06,1.43.16.47.1.91.3,1.3.58.41.31.73.71.94,1.17.26.58.38,1.21.36,1.85v17.59Zm11.86,0h-6.13V10.56l.53-.09c.21,0,.42-.02.63-.06h.84c.86-.02,1.7.16,2.48.52.71.35,1.21,1.03,1.33,1.81.63-.79,1.42-1.44,2.32-1.9,1.32-.64,2.78-.94,4.25-.87,1.31-.1,2.62.21,3.74.89.78.54,1.41,1.28,1.82,2.14.73-.85,1.61-1.56,2.6-2.09,1.3-.65,2.75-.97,4.21-.91,1.67-.14,3.33.34,4.67,1.34.96.82,1.59,1.97,1.77,3.22.12.74.21,1.49.25,2.24,0,.81.07,1.6.07,2.37v12.56h-6.09v-12.35c0-.66,0-1.25-.05-1.79-.03-.48-.15-.96-.37-1.39-.2-.39-.51-.7-.9-.89-.53-.24-1.1-.35-1.68-.32-.77,0-1.53.18-2.21.54-.58.26-1.08.66-1.46,1.16.09.88.14,1.76.14,2.65v12.39h-6.09v-14.18c-.01-.51-.14-1-.36-1.46-.21-.4-.54-.73-.94-.94-.56-.25-1.17-.37-1.79-.34-.91-.04-1.81.21-2.57.7-.62.36-1,1.01-1,1.72v14.5Zm37.23-28.33c.03.89-.34,1.74-1,2.33-1.32,1.18-3.31,1.18-4.63,0-.63-.61-.97-1.46-.94-2.33-.03-.88.31-1.73.94-2.35,1.3-1.23,3.33-1.23,4.63,0,.66.6,1.02,1.46,1,2.35Zm-.05,28.6c-.26.09-.53.14-.8.14h-1.35c-1,.05-1.99-.21-2.84-.74-.73-.49-1.1-1.48-1.1-3V10.56c.24-.06.48-.09.72-.11.42,0,.87-.07,1.34-.07.48,0,.97.05,1.44.14.45.08.88.24,1.27.48.4.28.72.65.94,1.08.26.57.39,1.19.36,1.81l.02,18.11Zm11.73-2.95c.03.88-.3,1.74-.9,2.39-1.32,1.33-3.47,1.34-4.79.02,0,0-.01-.01-.02-.02-.61-.64-.94-1.5-.92-2.39-.03-.88.31-1.73.94-2.35,1.35-1.22,3.4-1.22,4.75,0,.63.62.97,1.47.94,2.35Zm15.8-1.17c.6,0,1.21-.07,1.79-.22.5-.13.98-.32,1.43-.56.38-.2.74-.44,1.07-.71.24-.2.47-.42.68-.65.2.21.38.44.53.69.19.29.35.59.49.9.14.29.26.6.36.91.09.26.13.53.14.81,0,.3-.06.6-.18.87-.17.35-.44.65-.76.87-.74.52-1.54.93-2.4,1.21-1.3.39-2.65.57-4,.53-1.18-.01-2.35-.16-3.49-.44-1.27-.31-2.47-.89-3.5-1.7-1.15-.94-2.06-2.12-2.68-3.47-.79-1.83-1.16-3.81-1.08-5.8-.07-1.91.31-3.82,1.12-5.55.66-1.33,1.61-2.49,2.78-3.4,1.04-.81,2.23-1.39,3.51-1.72,2.21-.6,4.54-.63,6.76-.07.91.2,1.78.53,2.58,1,.46.25.86.59,1.19,1,.23.35.35.75.34,1.17-.03.54-.17,1.06-.41,1.54-.26.6-.59,1.17-1,1.68-.62-.61-1.33-1.12-2.1-1.52-.95-.51-2.01-.78-3.09-.76-1.62-.16-3.21.52-4.21,1.81-.91,1.4-1.36,3.04-1.29,4.7,0,.9.09,1.81.27,2.69.16.78.47,1.53.92,2.19.42.63,1,1.14,1.68,1.48.79.38,1.67.56,2.55.52Zm29.94-6.88c0,1.45-.18,2.89-.56,4.29-.33,1.35-.96,2.62-1.83,3.71-.9,1.07-2.02,1.93-3.29,2.51-3.13,1.24-6.61,1.24-9.74,0-1.26-.57-2.37-1.43-3.24-2.51-.85-1.06-1.48-2.27-1.84-3.58-.39-1.39-.59-2.83-.58-4.28,0-1.47.22-2.93.67-4.32.43-1.31,1.11-2.53,2-3.58.91-1.06,2.06-1.89,3.34-2.44,1.49-.63,3.09-.93,4.7-.89,1.65-.05,3.29.26,4.81.89,1.25.54,2.35,1.37,3.22,2.42.84,1.04,1.45,2.24,1.79,3.53.37,1.39.56,2.82.55,4.25Zm-6.13,0c0-.8-.06-1.6-.18-2.39-.1-.73-.32-1.43-.67-2.08-.32-.59-.78-1.09-1.35-1.46-1.34-.76-2.97-.76-4.31,0-.58.38-1.06.89-1.39,1.5-.36.65-.61,1.35-.74,2.08-.15.78-.22,1.58-.22,2.38,0,.81.06,1.61.2,2.41.11.76.35,1.49.69,2.17.31.63.79,1.16,1.37,1.55.65.41,1.4.61,2.17.58.78.03,1.55-.17,2.21-.58.58-.39,1.06-.92,1.37-1.55.34-.68.57-1.41.67-2.17.12-.79.18-1.58.18-2.38v-.06Zm17.09,10.73h-6.13V10.56l.54-.09c.21,0,.42-.02.63-.06h.85c.86-.02,1.7.16,2.48.52.71.35,1.2,1.03,1.32,1.81.63-.79,1.43-1.44,2.33-1.9,1.31-.65,2.77-.96,4.23-.9,1.31-.1,2.62.21,3.74.89.77.54,1.39,1.27,1.81,2.11,1.67-2.01,4.19-3.13,6.8-3,1.66-.13,3.31.34,4.65,1.34.96.82,1.59,1.97,1.77,3.22.12.74.21,1.49.25,2.24.04.81.06,1.6.06,2.37v12.62h-6.08v-14.14c-.02-.48-.13-.95-.33-1.39-.2-.38-.52-.69-.9-.89-.53-.24-1.1-.35-1.68-.32-.77,0-1.53.18-2.21.54-.58.26-1.08.66-1.46,1.16.09.88.14,1.76.14,2.65v12.39h-6.09v-12.35c0-.66,0-1.27-.05-1.83-.02-.51-.13-1-.35-1.46-.21-.4-.54-.73-.94-.94-.56-.25-1.17-.37-1.79-.34-.91-.04-1.81.21-2.58.7-.62.36-1,1.01-1,1.72v14.5ZM6.71,5.19h18.49c3.71,0,6.71,3,6.71,6.71v18.49c0,3.71-3,6.71-6.71,6.71H6.71c-3.71,0-6.71-3-6.71-6.71V11.9c0-3.71,3-6.71,6.71-6.71Z"/><path class="cls-1" d="m9.48,11.79c.51-.04,1.02.12,1.42.43.35.31.63.69.81,1.12l4.22,9.94,4.25-9.83c.2-.51.55-.95,1-1.27.39-.26.86-.4,1.33-.39.37,0,.74.02,1.11.07.28.02.55.08.81.18l1.3,18.46h-3.61l-.86-12.33-3.78,8.45h-3.19l-3.67-8.08-.8,12h-3.64l1.36-18.54c.27-.07.54-.13.82-.17.37-.04.75-.06,1.12-.04Z"/><circle class="cls-3" cx="126.92" cy="48.77" r="4.2"/></svg>