<?xml version="1.0" encoding="utf-8"?>
<!-- Generator: Adobe Illustrator 24.0.0, SVG Export Plug-In . SVG Version: 6.00 Build 0)  -->
<svg version="1.1" id="Layer_1" xmlns="http://www.w3.org/2000/svg" xmlns:xlink="http://www.w3.org/1999/xlink" x="0px" y="0px"
	 viewBox="0 0 257.62 272.39" style="enable-background:new 0 0 257.62 272.39;" xml:space="preserve">
<path d="M177.6,80.18c40.71,0,44.2,2.81,53.5,39.78c4.38,17.39,8.71,34.8,13.33,52.13c4.18,15.66-1.22,25.13-17.64,25.88
	c-9.58,0.44-13.29,4.02-12.19,13.26c0.24,1.97-0.02,3.99,0.03,5.98c1.3,48.61-0.72,43.47-47.31,43.73
	c-13.35,0.07-19.52-6.62-19.74-19.51c-0.11-6.65-0.37-13.33,0.01-19.96c0.74-13.26,1.45-24.68-18.07-24.72
	c-10.92-0.02-14.77-10.44-12.24-20.92c6.06-25.19,11.66-50.55,19.33-75.26C143.47,78.51,162.84,79.31,177.6,80.18z"/>
<path d="M107.02,136.69c-0.87,14.7-0.23,29.29-10.11,45.23c-7.79,12.57-2,33.58-2.13,50.84c-0.19,25.98-2.29,28.08-28.86,28.17
	c-5.32,0.02-10.65-0.27-15.95,0.05c-16.47,1.01-22.88-7.36-22.36-22.98c0.33-9.96,0.26-19.94,0-29.91
	c-0.35-13.44-3.21-25.42-8.38-38.73c-8.85-22.77-7.69-49.49,0.62-73.91c2.85-8.37,10.72-13.36,20.01-14.6
	c3.28-0.44,6.62-0.54,9.94-0.65C101.77,78.49,107.03,83.58,107.02,136.69z"/>
<circle cx="60.06" cy="38.42" r="33.26"/>
<circle cx="181.16" cy="38.42" r="33.26"/>
</svg>
