<svg width="12" height="12" viewBox="0 0 12 12" fill="none" xmlns="http://www.w3.org/2000/svg">
<g id="ic:round-phone">
<path id="Vector" d="M9.61502 7.63001L8.34502 7.48501C8.19569 7.46747 8.04432 7.484 7.9023 7.53336C7.76028 7.58272 7.63128 7.66363 7.52502 7.77001L6.60502 8.69001C5.18562 7.96812 4.03191 6.81441 3.31002 5.39501L4.23502 4.47001C4.45002 4.25501 4.55502 3.95501 4.52002 3.65001L4.37502 2.39001C4.34667 2.14609 4.22962 1.92112 4.04614 1.75793C3.86266 1.59473 3.62557 1.50471 3.38002 1.50501H2.51502C1.95002 1.50501 1.48002 1.97501 1.51502 2.54001C1.78002 6.81001 5.19502 10.22 9.46002 10.485C10.025 10.52 10.495 10.05 10.495 9.48501V8.62001C10.5 8.11501 10.12 7.69001 9.61502 7.63001Z" fill="#F2F2F2"/>
</g>
</svg>
