<svg width="20" height="18" viewBox="0 0 20 18" fill="none" xmlns="http://www.w3.org/2000/svg">
<g id="request_icon">
<rect id="Rectangle" opacity="0.01" x="19.3403" width="18" height="18.72" transform="rotate(90 19.3403 0)" fill="white"/>
<path id="Path" d="M11.1092 13.6247L15.3461 5.15301C15.5246 4.79611 15.4461 4.39291 15.1413 4.10077C14.8364 3.80864 14.3667 3.68645 13.9154 3.78194L10.3512 4.53599V8.22794C10.3512 8.39782 10.1852 8.53557 9.98042 8.53557C9.77565 8.53557 9.60962 8.39784 9.60962 8.22794V4.53599L6.04548 3.78194C5.59417 3.68645 5.12443 3.80862 4.81958 4.10077C4.51414 4.3935 4.43657 4.79675 4.61474 5.15303L8.85166 13.6247C9.04456 14.0104 9.47708 14.25 9.98042 14.25C10.4838 14.25 10.9163 14.0104 11.1092 13.6247Z" fill="#5D5D5D"/>
</g>
</svg>
