<svg width="20" height="18" viewBox="0 0 20 18" fill="none" xmlns="http://www.w3.org/2000/svg">
<g id="request_icon">
<rect id="Rectangle" opacity="0.01" x="0.879883" y="18" width="18" height="18.72" transform="rotate(-90 0.879883 18)" fill="white"/>
<path id="Path" d="M9.11104 4.37533L4.8741 12.847C4.69558 13.2039 4.77411 13.6071 5.07894 13.8992C5.38381 14.1914 5.85356 14.3135 6.30484 14.2181L9.869 13.464L9.869 9.77206C9.869 9.60218 10.035 9.46443 10.2398 9.46443C10.4446 9.46443 10.6106 9.60216 10.6106 9.77206L10.6106 13.464L14.1747 14.2181C14.626 14.3135 15.0958 14.1914 15.4006 13.8992C15.7061 13.6065 15.7836 13.2033 15.6055 12.847L11.3686 4.3753C11.1757 3.98959 10.7431 3.75 10.2398 3.75C9.73646 3.75 9.30392 3.98959 9.11104 4.37533Z" fill="#5D5D5D"/>
</g>
</svg>
